<svg xmlns="http://www.w3.org/2000/svg" xmlns:xlink="http://www.w3.org/1999/xlink" width="1080" zoomAndPan="magnify" viewBox="0 0 810 809.999993" height="1080" preserveAspectRatio="xMidYMid meet" version="1.0"><defs><g/><clipPath id="d5a17a96dc"><path d="M 0 72 L 652 72 L 652 713 L 0 713 Z M 0 72 " clip-rule="nonzero"/></clipPath><clipPath id="c92788d20d"><rect x="0" width="810" y="0" height="810"/></clipPath><clipPath id="35152e3ff3"><path d="M 143 113 L 790 113 L 790 753 L 143 753 Z M 143 113 " clip-rule="nonzero"/></clipPath><clipPath id="1620b8bd73"><rect x="0" width="790" y="0" height="810"/></clipPath><clipPath id="7d5e8b7951"><rect x="0" width="810" y="0" height="810"/></clipPath></defs><g transform="matrix(1, 0, 0, 1, 0, 0.000000000000039746)"><g clip-path="url(#7d5e8b7951)"><g transform="matrix(1, 0, 0, 1, 0, 0.000000000000039746)"><g clip-path="url(#c92788d20d)"><g clip-path="url(#d5a17a96dc)"><g fill="#fc7019" fill-opacity="1"><g transform="translate(-67.689676, 326.943187)"><g><path d="M 116.796875 212.078125 L 115.5625 -20.890625 L 469.640625 -226.953125 L 567.5625 -167.578125 L 219.84375 34.765625 L 217.140625 153.6875 L 321.015625 208.625 L 668.734375 6.28125 L 671.984375 120.765625 L 324.265625 323.125 Z M 116.796875 212.078125 "/></g></g></g></g></g></g><g transform="matrix(1, 0, 0, 1, 20, 0.000000000000039746)"><g clip-path="url(#1620b8bd73)"><g clip-path="url(#35152e3ff3)"><g fill="#131b28" fill-opacity="1"><g transform="translate(127.447946, 366.936597)"><g><path d="M 617.453125 -80.234375 L 618.984375 151.625 L 264.203125 358.078125 L 166.96875 298.28125 L 514.671875 95.9375 L 517.8125 -22.234375 L 413.921875 -77.203125 L 66.21875 125.140625 L 62.265625 11.078125 L 417.046875 -195.375 Z M 617.453125 -80.234375 "/></g></g></g></g></g></g></g></g></svg>